<?xml version="1.0" encoding="iso-8859-1"?>
<svg fill="current" xmlns="http://www.w3.org/2000/svg" width="575.622" height="582.371" viewBox="0 0 575.622 582.371"><g transform="translate(90.144 -274.774)"><g transform="translate(219 106.982)"><g transform="translate(156.942 454.18) rotate(45)"><g transform="translate(0 0)"><path d="M150.7,121.55,33.362,4.212a14.455,14.455,0,0,0-20.4,0L4.322,12.851a14.443,14.443,0,0,0,0,20.4l98.533,98.533L4.212,230.426a14.457,14.457,0,0,0,0,20.4l8.641,8.637a14.455,14.455,0,0,0,20.4,0L150.7,142.02a14.556,14.556,0,0,0,0-20.47Z"/></g></g><g transform="translate(-29.506 483.249) rotate(-45)"><g transform="translate(0 0)"><path d="M150.7,121.55,33.362,4.212a14.455,14.455,0,0,0-20.4,0L4.322,12.851a14.443,14.443,0,0,0,0,20.4l98.533,98.533L4.212,230.426a14.457,14.457,0,0,0,0,20.4l8.641,8.637a14.455,14.455,0,0,0,20.4,0L150.7,142.02a14.556,14.556,0,0,0,0-20.47Z"/></g></g><g transform="translate(3.393 669.697) rotate(-135)"><g transform="translate(0 0)"><path d="M150.7,121.55,33.362,4.212a14.455,14.455,0,0,0-20.4,0L4.322,12.851a14.443,14.443,0,0,0,0,20.4l98.533,98.533L4.212,230.426a14.457,14.457,0,0,0,0,20.4l8.641,8.637a14.455,14.455,0,0,0,20.4,0L150.7,142.02a14.556,14.556,0,0,0,0-20.47Z"/></g></g></g><g transform="translate(219 -98.938)"><g transform="translate(156.942 454.18) rotate(45)"><g transform="translate(0 0)"><path d="M150.7,121.55,33.362,4.212a14.455,14.455,0,0,0-20.4,0L4.322,12.851a14.443,14.443,0,0,0,0,20.4l98.533,98.533L4.212,230.426a14.457,14.457,0,0,0,0,20.4l8.641,8.637a14.455,14.455,0,0,0,20.4,0L150.7,142.02a14.556,14.556,0,0,0,0-20.47Z"/></g></g><g transform="translate(-29.506 483.249) rotate(-45)"><g transform="translate(0 0)"><path d="M150.7,121.55,33.362,4.212a14.455,14.455,0,0,0-20.4,0L4.322,12.851a14.443,14.443,0,0,0,0,20.4l98.533,98.533L4.212,230.426a14.457,14.457,0,0,0,0,20.4l8.641,8.637a14.455,14.455,0,0,0,20.4,0L150.7,142.02a14.556,14.556,0,0,0,0-20.47Z"/></g></g><g transform="translate(3.393 669.697) rotate(-135)"><g transform="translate(0 0)"><path d="M150.7,121.55,33.362,4.212a14.455,14.455,0,0,0-20.4,0L4.322,12.851a14.443,14.443,0,0,0,0,20.4l98.533,98.533L4.212,230.426a14.457,14.457,0,0,0,0,20.4l8.641,8.637a14.455,14.455,0,0,0,20.4,0L150.7,142.02a14.556,14.556,0,0,0,0-20.47Z"/></g></g></g><g transform="translate(16 106.982)"><g transform="translate(156.942 454.18) rotate(45)"><g transform="translate(0 0)"><path d="M150.7,121.55,33.362,4.212a14.455,14.455,0,0,0-20.4,0L4.322,12.851a14.443,14.443,0,0,0,0,20.4l98.533,98.533L4.212,230.426a14.457,14.457,0,0,0,0,20.4l8.641,8.637a14.455,14.455,0,0,0,20.4,0L150.7,142.02a14.556,14.556,0,0,0,0-20.47Z"/></g></g><g transform="translate(-29.506 483.249) rotate(-45)"><g transform="translate(0 0)"><path d="M150.7,121.55,33.362,4.212a14.455,14.455,0,0,0-20.4,0L4.322,12.851a14.443,14.443,0,0,0,0,20.4l98.533,98.533L4.212,230.426a14.457,14.457,0,0,0,0,20.4l8.641,8.637a14.455,14.455,0,0,0,20.4,0L150.7,142.02a14.556,14.556,0,0,0,0-20.47Z"/></g></g><g transform="translate(3.393 669.697) rotate(-135)"><g transform="translate(0 0)"><path d="M150.7,121.55,33.362,4.212a14.455,14.455,0,0,0-20.4,0L4.322,12.851a14.443,14.443,0,0,0,0,20.4l98.533,98.533L4.212,230.426a14.457,14.457,0,0,0,0,20.4l8.641,8.637a14.455,14.455,0,0,0,20.4,0L150.7,142.02a14.556,14.556,0,0,0,0-20.47Z"/></g></g></g></g></svg>